<?xml version="1.0" encoding="UTF-8"?>
<svg width="18" height="18" viewBox="0 0 18 18" xmlns="http://www.w3.org/2000/svg">
    <path d="M15.145 13.74c-.51.92-.755 1.33-1.413 2.145-.915 1.13-2.208 2.54-3.814 2.556-1.42.015-1.783-.89-3.726-.88-1.943.008-2.339.9-3.76.884-1.606-.016-2.835-1.283-3.75-2.413C-2.83 13.752-3.044 9.7-1.483 7.65c1.117-1.466 2.884-2.32 4.542-2.32 1.692-.002 2.76.895 4.16.895 1.365 0 2.197-.896 4.16-.896 1.485 0 3.058.724 4.174 1.975-3.667 2.01-3.075 7.245.592 6.436zM11.202 3.14c.716-.918 1.264-2.205 1.065-3.52-1.176.08-2.54.826-3.33 1.81-.727.89-1.31 2.175-1.077 3.448 1.276.04 2.597-.752 3.342-1.738z" fill="#000" fill-rule="nonzero"/>
</svg> 